<svg width="48" height="49" viewBox="0 0 48 49" fill="none" xmlns="http://www.w3.org/2000/svg">
<path d="M35.1553 1.58333H12.4188C6.14027 1.58333 1.05054 6.7134 1.05054 13.0417V35.9583C1.05054 42.2866 6.14027 47.4167 12.4188 47.4167H35.1553C41.4338 47.4167 46.5235 42.2866 46.5235 35.9583V13.0417C46.5235 6.7134 41.4338 1.58333 35.1553 1.58333Z" stroke="white" stroke-width="2" stroke-linecap="round" stroke-linejoin="round"/>
<path d="M32.8817 23.0562C33.1623 24.9635 32.8391 26.9113 31.9581 28.6227C31.077 30.3341 29.683 31.722 27.9743 32.5888C26.2656 33.4557 24.3293 33.7574 22.4406 33.4511C20.552 33.1448 18.8073 32.246 17.4546 30.8826C16.102 29.5193 15.2103 27.7607 14.9064 25.8571C14.6025 23.9535 14.9019 22.0018 15.7619 20.2796C16.6219 18.5574 17.9988 17.1523 19.6968 16.2643C21.3948 15.3763 23.3273 15.0505 25.2195 15.3333C27.1497 15.6218 28.9366 16.5283 30.3163 17.919C31.6961 19.3097 32.5955 21.1108 32.8817 23.0562Z" stroke="white" stroke-width="2" stroke-linecap="round" stroke-linejoin="round"/>
</svg>
