<svg width="53" height="44" viewBox="0 0 53 44" fill="none" xmlns="http://www.w3.org/2000/svg">
<path d="M51.7669 1.31467C49.5896 2.86264 47.1789 4.04659 44.6276 4.82092C43.2583 3.23397 41.4385 2.10917 39.4142 1.59867C37.39 1.08816 35.259 1.21658 33.3096 1.96654C31.3601 2.71651 29.6862 4.05184 28.5142 5.79194C27.3423 7.53204 26.7288 9.59294 26.7567 11.6959V13.9876C22.7611 14.092 18.8019 13.1988 15.2316 11.3876C11.6614 9.57631 8.59102 6.90321 6.29391 3.60634C6.29391 3.60634 -2.80068 24.2313 17.6622 33.398C12.9796 36.6017 7.40153 38.208 1.74661 37.9813C22.2095 49.4397 47.2196 37.9813 47.2196 11.6272C47.2175 10.9888 47.1566 10.3521 47.0377 9.72509C49.3582 7.41851 50.9957 4.5063 51.7669 1.31467Z" fill="white" stroke="white" stroke-width="2" stroke-linecap="round" stroke-linejoin="round"/>
</svg>
