<svg width="42" height="38" viewBox="0 0 42 38" fill="none" xmlns="http://www.w3.org/2000/svg">
<path d="M40.1307 6.71251C39.9129 5.6249 39.4694 4.6284 38.8449 3.82364C38.2204 3.01889 37.4371 2.43439 36.574 2.12917C33.4207 1.16667 20.8074 1.16667 20.8074 1.16667C20.8074 1.16667 8.19403 1.16667 5.0407 2.22084C4.17765 2.52605 3.39432 3.11056 2.76983 3.91531C2.14534 4.72007 1.70181 5.71657 1.48403 6.80417C0.906923 10.8044 0.624629 14.8624 0.640696 18.9271C0.620125 23.0224 0.902437 27.1113 1.48403 31.1417C1.72412 32.1955 2.17759 33.1541 2.80063 33.9249C3.42366 34.6956 4.1952 35.2525 5.0407 35.5417C8.19403 36.5958 20.8074 36.5958 20.8074 36.5958C20.8074 36.5958 33.4207 36.5958 36.574 35.5417C37.4371 35.2365 38.2204 34.652 38.8449 33.8472C39.4694 33.0424 39.9129 32.0459 40.1307 30.9583C40.7034 26.9882 40.9856 22.9612 40.974 18.9271C40.9946 14.8318 40.7123 10.7429 40.1307 6.71251Z" fill="white" stroke="white" stroke-linecap="round" stroke-linejoin="round"/>
<path d="M16.6824 26.4208L27.224 18.9271L16.6824 11.4333V26.4208Z" fill="#2C2C2C"/>
</svg>
