<svg width="50" height="30" viewBox="0 0 50 30" fill="none" xmlns="http://www.w3.org/2000/svg">
<path d="M20.6594 28.4744L20.6595 28.4744C21.2825 28.856 22.0317 29.0118 22.7271 28.9993C23.4212 28.9868 24.1645 28.8046 24.7666 28.3923L24.7667 28.3923C25.3782 27.9735 25.8178 27.3193 25.7841 26.535C25.7508 25.7593 25.2665 25.1423 24.6399 24.7585C24.6399 24.7585 24.6398 24.7585 24.6398 24.7585L12.7424 17.4705H45.4356C46.1896 17.4705 46.9187 17.2744 47.4897 16.9046C48.0508 16.5412 48.5717 15.9211 48.5717 15.087C48.5717 14.2529 48.0508 13.6328 47.4897 13.2693C46.9187 12.8995 46.1896 12.7034 45.4356 12.7034H12.7359L24.6398 5.41145C24.6399 5.41144 24.6399 5.41144 24.6399 5.41143C25.2665 5.02761 25.7508 4.4106 25.7841 3.63499C25.8178 2.85061 25.3781 2.19648 24.7666 1.77774C24.1645 1.36545 23.4212 1.18321 22.7272 1.17069C22.0317 1.15814 21.2825 1.31395 20.6594 1.69564L2.38173 12.892L2.90206 13.7415L2.38172 12.892C1.7553 13.2758 1.27178 13.8268 1.08921 14.5089C1.03149 14.6923 1 14.8864 1 15.087C1 15.296 1.03417 15.498 1.09669 15.6882C1.28494 16.3582 1.76374 16.8993 2.38172 17.2779C2.38173 17.2779 2.38174 17.2779 2.38175 17.2779L20.6594 28.4744Z" fill="white" stroke="white" stroke-width="2"/>
</svg>
