<svg width="50" height="30" viewBox="0 0 50 30" fill="none" xmlns="http://www.w3.org/2000/svg">
<path d="M28.9123 1.52563L28.9123 1.52561C28.2892 1.14397 27.5401 0.988165 26.8446 1.0007C26.1506 1.0132 25.4073 1.19541 24.8052 1.60765L24.8051 1.60773C24.1936 2.02654 23.7539 2.68069 23.7876 3.46504C23.821 4.24066 24.3053 4.85766 24.9319 5.24146C24.9319 5.24147 24.932 5.24149 24.932 5.24151L36.8294 12.5295L4.1362 12.5295C3.38214 12.5295 2.65311 12.7256 2.0821 13.0954C1.52097 13.4588 1.00003 14.0789 1.00003 14.913C1.00003 15.7471 1.52097 16.3672 2.0821 16.7307C2.65312 17.1005 3.38214 17.2966 4.1362 17.2966L36.8358 17.2966L24.9319 24.5885C24.9319 24.5886 24.9319 24.5886 24.9319 24.5886C24.3053 24.9724 23.821 25.5894 23.7876 26.365C23.7539 27.1494 24.1936 27.8035 24.8052 28.2223C25.4073 28.6346 26.1505 28.8168 26.8446 28.8293C27.5401 28.8419 28.2893 28.686 28.9123 28.3044L47.19 17.108L46.6697 16.2585L47.1901 17.108C47.8165 16.7242 48.3 16.1732 48.4826 15.4911C48.5403 15.3077 48.5718 15.1136 48.5718 14.913C48.5718 14.704 48.5376 14.502 48.4751 14.3118C48.2868 13.6418 47.808 13.1007 47.1901 12.7221C47.19 12.7221 47.19 12.7221 47.19 12.7221L28.9123 1.52563Z" fill="white" stroke="white" stroke-width="2"/>
</svg>
