<svg width="34" height="34" viewBox="0 0 34 34" fill="none" xmlns="http://www.w3.org/2000/svg">
<path d="M10.3333 2H5.33333C4.44928 2 3.60143 2.35119 2.97631 2.97631C2.35119 3.60143 2 4.44928 2 5.33333V10.3333M32 10.3333V5.33333C32 4.44928 31.6488 3.60143 31.0237 2.97631C30.3986 2.35119 29.5507 2 28.6667 2H23.6667M23.6667 32H28.6667C29.5507 32 30.3986 31.6488 31.0237 31.0237C31.6488 30.3986 32 29.5507 32 28.6667V23.6667M2 23.6667V28.6667C2 29.5507 2.35119 30.3986 2.97631 31.0237C3.60143 31.6488 4.44928 32 5.33333 32H10.3333" stroke="white" stroke-width="4" stroke-linecap="round" stroke-linejoin="round"/>
</svg>
