<svg width="72" height="71" viewBox="0 0 72 71" fill="none" xmlns="http://www.w3.org/2000/svg">
<path d="M51.0831 5.91663H21.4998C13.3306 5.91663 6.70813 12.5391 6.70813 20.7083V50.2916C6.70813 58.4608 13.3306 65.0833 21.4998 65.0833H51.0831C59.2523 65.0833 65.8748 58.4608 65.8748 50.2916V20.7083C65.8748 12.5391 59.2523 5.91663 51.0831 5.91663Z" stroke="white" stroke-width="2" stroke-linecap="round" stroke-linejoin="round"/>
<path d="M48.1249 33.6363C48.49 36.0983 48.0694 38.6128 46.9231 40.8221C45.7767 43.0314 43.9629 44.823 41.7397 45.942C39.5164 47.061 36.9969 47.4505 34.5396 47.0551C32.0822 46.6597 29.8121 45.4994 28.0521 43.7395C26.2921 41.9795 25.1319 39.7094 24.7365 37.252C24.3411 34.7946 24.7306 32.2751 25.8496 30.0519C26.9686 27.8286 28.7602 26.0149 30.9694 24.8685C33.1787 23.7221 35.6932 23.3016 38.1553 23.6667C40.6667 24.0391 42.9917 25.2094 44.787 27.0046C46.5822 28.7999 47.7525 31.1249 48.1249 33.6363Z" stroke="white" stroke-width="2" stroke-linecap="round" stroke-linejoin="round"/>
<path d="M52.5624 19.2291H52.592" stroke="white" stroke-width="2" stroke-linecap="round" stroke-linejoin="round"/>
</svg>
