<svg width="68" height="57" viewBox="0 0 68 57" fill="none" xmlns="http://www.w3.org/2000/svg">
<path d="M66.2083 1.98812C63.3754 3.98641 60.2387 5.51478 56.9192 6.51437C55.1375 4.46576 52.7696 3.01375 50.1358 2.35474C47.502 1.69572 44.7293 1.86149 42.1928 2.82963C39.6563 3.79777 37.4783 5.52156 35.9534 7.76787C34.4285 10.0142 33.6303 12.6746 33.6667 15.3894V18.3477C28.4678 18.4825 23.3163 17.3295 18.6709 14.9913C14.0255 12.6531 10.0305 9.20242 7.04167 4.94646C7.04167 4.94646 -4.79167 31.5715 21.8333 43.4048C15.7407 47.5404 8.48284 49.6141 1.125 49.3215C27.75 64.1131 60.2917 49.3215 60.2917 15.3006C60.2889 14.4766 60.2097 13.6546 60.055 12.8452C63.0743 9.86762 65.2049 6.10823 66.2083 1.98812Z" fill="white" stroke="white" stroke-width="2" stroke-linecap="round" stroke-linejoin="round"/>
</svg>
