<svg width="72" height="71" viewBox="0 0 72 71" fill="none" xmlns="http://www.w3.org/2000/svg">
<path d="M67.0559 18.9925C66.7044 17.5885 65.9887 16.3021 64.981 15.2633C63.9733 14.2244 62.7093 13.4699 61.3167 13.0759C56.2284 11.8334 35.875 11.8334 35.875 11.8334C35.875 11.8334 15.5217 11.8334 10.4334 13.1942C9.04071 13.5882 7.77671 14.3428 6.76901 15.3816C5.76131 16.4205 5.04561 17.7069 4.69419 19.1109C3.76295 24.2748 3.30743 29.5133 3.33336 34.7605C3.30016 40.0471 3.75571 45.3256 4.69419 50.5284C5.08161 51.8888 5.81335 53.1262 6.8187 54.1212C7.82405 55.1162 9.06903 55.8351 10.4334 56.2084C15.5217 57.5692 35.875 57.5692 35.875 57.5692C35.875 57.5692 56.2284 57.5692 61.3167 56.2084C62.7093 55.8144 63.9733 55.0598 64.981 54.021C65.9887 52.9821 66.7044 51.6957 67.0559 50.2917C67.9799 45.1667 68.4354 39.9681 68.4167 34.7605C68.4499 29.4738 67.9943 24.1954 67.0559 18.9925Z" fill="white" stroke="white" stroke-linecap="round" stroke-linejoin="round"/>
<path d="M29.2188 44.4342L46.2292 34.7604L29.2188 25.0867V44.4342Z" fill="#2C2C2C"/>
</svg>
