<svg width="67" height="48" viewBox="0 0 67 48" fill="none" xmlns="http://www.w3.org/2000/svg">
<path d="M65.0559 7.99254C64.7044 6.58855 63.9887 5.30215 62.981 4.26328C61.9733 3.22442 60.7093 2.46988 59.3167 2.07587C54.2284 0.833374 33.875 0.833374 33.875 0.833374C33.875 0.833374 13.5217 0.833374 8.43336 2.19421C7.04071 2.58821 5.77671 3.34275 4.76901 4.38162C3.76131 5.42048 3.04561 6.70688 2.69419 8.11087C1.76295 13.2748 1.30743 18.5133 1.33336 23.7605C1.30016 29.0471 1.75571 34.3256 2.69419 39.5284C3.08161 40.8888 3.81335 42.1262 4.8187 43.1212C5.82405 44.1162 7.06903 44.8351 8.43336 45.2084C13.5217 46.5692 33.875 46.5692 33.875 46.5692C33.875 46.5692 54.2284 46.5692 59.3167 45.2084C60.7093 44.8144 61.9733 44.0598 62.981 43.021C63.9887 41.9821 64.7044 40.6957 65.0559 39.2917C65.9799 34.1667 66.4354 28.9681 66.4167 23.7605C66.4499 18.4738 65.9943 13.1954 65.0559 7.99254Z" fill="white" stroke="white" stroke-linecap="round" stroke-linejoin="round"/>
</svg>
